<svg width="1920" height="1080" viewBox="0 0 1920 1080" fill="none" xmlns="http://www.w3.org/2000/svg">
<mask id="mask0_758_3623" style="mask-type:alpha" maskUnits="userSpaceOnUse" x="0" y="0" width="1920" height="1080">
<rect width="1920" height="1080" fill="#D9D9D9"/>
</mask>
<g mask="url(#mask0_758_3623)">
<path opacity="0.05" fill-rule="evenodd" clip-rule="evenodd" d="M1966.23 319.408L1961.82 311.343C1959.27 306.691 1953.18 305.303 1948.85 308.304L1858.62 371.025C1858.58 371.025 1849.3 377.815 1853.94 387.568L1855.5 390.719C1895.44 472.571 1878.74 570.778 1813.88 635.112C1729.9 718.464 1593.26 718.464 1509.27 635.112C1425.28 551.759 1425.28 416.152 1509.27 332.762L1519.88 322.221C1522.36 319.783 1526.35 319.783 1528.79 322.221L1564.12 357.408C1566.6 359.846 1566.6 363.785 1564.12 366.223L1556.97 373.313C1496.99 432.883 1494.06 533.191 1554.61 592.16C1592.16 628.735 1645.37 643.777 1699.12 631.098C1713.16 627.797 1726.66 622.282 1738.99 614.855C1787.03 585.896 1814.34 536.979 1814.34 483.9C1814.34 443.386 1798.44 405.311 1769.57 376.689L1553.02 161.931C1550.58 159.493 1550.58 155.517 1553.05 153.078L1588.43 118.042C1590.9 115.604 1594.86 115.604 1597.33 118.042L1803.23 322.221C1806.28 325.26 1811.11 325.673 1814.68 323.197L1909.13 257.625C1913.7 254.474 1914.27 247.985 1910.31 244.083L1665.84 1.82873C1663.37 -0.609575 1659.41 -0.609575 1656.94 1.82873L1641.53 17.1338C1639.1 19.5721 1639.1 23.5484 1641.53 25.9867L1861.13 243.633C1862.92 245.396 1862.65 248.285 1860.6 249.71L1816.78 280.133C1814.26 281.858 1810.88 281.596 1808.71 279.42L1599.16 71.6767C1595.66 68.2255 1589.99 68.2255 1586.53 71.6767L1506.23 151.203C1502.73 154.691 1502.73 160.318 1506.23 163.769L1745.26 400.885C1767.63 423.092 1779.95 452.577 1779.95 483.975C1779.95 515.335 1767.63 544.857 1745.26 567.064C1722.9 589.272 1693.19 601.463 1661.58 601.463C1628.52 601.463 1597.6 588.109 1574.93 563.988C1531.03 517.248 1535.06 443.386 1580.56 398.221L1610.87 368.137C1614.37 364.648 1614.37 359.059 1610.87 355.57L1530.69 275.819C1527.23 272.368 1521.52 272.33 1518.02 275.819L1489.26 304.366C1393.64 399.309 1386.33 553.898 1478.27 652.367C1574.96 755.864 1738.57 758.19 1838.23 659.27C1908.71 589.309 1930.17 484.725 1894.34 393.72C1893.27 391.057 1894.15 388.018 1896.5 386.367L1940.55 355.757C1942.72 354.219 1945.8 355.082 1946.91 357.483C1998.9 473.359 1973.99 612.379 1882.51 703.197C1760.71 824.099 1562.53 824.061 1440.73 703.197C1318.93 582.332 1318.93 385.617 1440.73 264.715L1475.65 230.054C1478.12 227.615 1478.12 223.677 1475.65 221.238L1460.24 205.933C1457.77 203.495 1453.81 203.495 1451.34 205.933L1416.42 240.595C1281.19 374.776 1281.19 593.135 1416.42 727.354C1484.01 794.464 1572.83 828 1661.62 828C1750.44 828 1839.22 794.426 1906.81 727.354C2014.77 620.182 2039.22 452.427 1966.23 319.408Z" fill="#2196f3"/>
<circle opacity="0.5" cx="-0.188344" cy="288.812" r="341.142" transform="rotate(-75 -0.188344 288.812)" fill="#2196f3"/>
<circle opacity="0.5" cx="1694.92" cy="1253.59" r="341.142" transform="rotate(-50.8719 1694.92 1253.59)" fill="#2196f3"/>
<circle opacity="0.65" cx="173.812" cy="-91.1883" r="341.142" transform="rotate(-75 173.812 -91.1883)" fill="#2196f3"/>
<circle opacity="0.65" cx="2009.05" cy="977.916" r="341.142" transform="rotate(-50.8719 2009.05 977.916)" fill="#2196f3"/>
</g>
</svg>
