<svg width="47" height="54" viewBox="0 0 47 54" fill="none" xmlns="http://www.w3.org/2000/svg">
<path fill-rule="evenodd" clip-rule="evenodd" d="M43.3074 20.8314L43.0174 20.3054C42.8499 20.0021 42.4498 19.9116 42.1648 20.1073L36.2341 24.1977C36.2316 24.1977 35.6215 24.6405 35.9266 25.2766L36.0291 25.4821C38.6544 30.8202 37.5568 37.2249 33.2938 41.4205C27.7732 46.8565 18.7921 46.8565 13.2715 41.4205C7.7509 35.9846 7.7509 27.1407 13.2715 21.7023L13.9691 21.0149C14.1316 20.8559 14.3941 20.8559 14.5542 21.0149L16.8769 23.3096C17.0394 23.4687 17.0394 23.7255 16.8769 23.8846L16.4069 24.3469C12.4639 28.2319 12.2714 34.7736 16.2519 38.6194C18.7196 41.0047 22.2175 41.9857 25.7504 41.1588C26.673 40.9435 27.5606 40.5839 28.3707 40.0995C31.5286 38.2108 33.3238 35.0207 33.3238 31.559C33.3238 28.9169 32.2787 26.4337 30.381 24.5671L16.1468 10.5613C15.9868 10.4023 15.9868 10.143 16.1493 9.98395L18.4746 7.69898C18.6371 7.53997 18.8972 7.53997 19.0597 7.69898L32.5937 21.0149C32.7937 21.2131 33.1113 21.24 33.3463 21.0785L39.5545 16.8021C39.8545 16.5966 39.892 16.1734 39.632 15.919L23.5627 0.11995C23.4002 -0.0390678 23.1401 -0.0390678 22.9776 0.11995L21.965 1.11809C21.805 1.27711 21.805 1.53643 21.965 1.69545L36.3991 15.8896C36.5166 16.0046 36.4991 16.193 36.3641 16.2859L33.4838 18.27C33.3188 18.3825 33.0963 18.3654 32.9537 18.2235L19.1797 4.6752C18.9497 4.45013 18.5771 4.45013 18.3496 4.6752L13.0715 9.86163C12.8415 10.0891 12.8415 10.4561 13.0715 10.6812L28.7833 26.1451C30.2534 27.5933 31.0635 29.5162 31.0635 31.5639C31.0635 33.6091 30.2534 35.5344 28.7833 36.9827C27.3131 38.431 25.3604 39.2261 23.2827 39.2261C21.1099 39.2261 19.0772 38.3552 17.587 36.7821C14.7017 33.7339 14.9667 28.9169 17.9571 25.9714L19.9498 24.0093C20.1798 23.7818 20.1798 23.4173 19.9498 23.1898L14.6792 17.9887C14.4517 17.7636 14.0766 17.7611 13.8466 17.9887L11.9564 19.8504C5.67066 26.0423 5.19061 36.124 11.2338 42.5459C17.5895 49.2956 28.3432 49.4473 34.894 42.996C39.527 38.4335 40.9371 31.6128 38.5819 25.6778C38.5119 25.5041 38.5694 25.3059 38.7244 25.1983L41.6197 23.202C41.7622 23.1017 41.9648 23.158 42.0373 23.3145C45.4552 30.8715 43.8175 39.938 37.8043 45.8608C29.7984 53.7457 16.7719 53.7432 8.76601 45.8608C0.760108 37.9784 0.760108 25.1494 8.76601 17.2645L11.0613 15.004C11.2238 14.845 11.2238 14.5881 11.0613 14.4291L10.0487 13.431C9.88614 13.2719 9.62611 13.2719 9.46359 13.431L7.16833 15.6915C-1.72017 24.4423 -1.72017 38.683 7.16833 47.4363C11.6113 51.813 17.4495 54.0001 23.2852 54.0001C29.1233 54.0001 34.959 51.8105 39.402 47.4363C46.4978 40.4469 48.1055 29.5064 43.3074 20.8314Z" fill="#2196f3"/>
</svg>
